<svg xmlns="http://www.w3.org/2000/svg" viewBox="0 0 375 375"><path d="M187.5 2.5a185 185 0 0 0-185 185 185 185 0 0 0 185 185 185 185 0 0 0 185-185 185 185 0 0 0-185-185zm-85.906 78.875a20.232 20.232 0 0 1 14.518 6.132l71.388 71.388 71.388-71.388a20.232 20.232 0 0 1 13.909-6.121 20.232 20.232 0 0 1 14.702 34.73l-71.39 71.388 71.39 71.39a20.232 20.232 0 1 1-28.61 28.61L187.5 216.115l-71.388 71.389a20.232 20.232 0 1 1-28.611-28.61l71.39-71.39-71.39-71.388a20.232 20.232 0 0 1 14.093-34.74z"/></svg>