<svg xmlns="http://www.w3.org/2000/svg" viewBox="0 0 496 512"><path d="M165.9 399.378c0 2.052-2.3 3.693-5.2 3.693-3.3.307-5.6-1.334-5.6-3.693 0-2.05 2.3-3.692 5.2-3.692 3-.307 5.6 1.334 5.6 3.692zm-31.1-4.615c-.7 2.051 1.3 4.41 4.3 5.026 2.6 1.025 5.6 0 6.2-2.052.6-2.05-1.3-4.41-4.3-5.333-2.6-.718-5.5.308-6.2 2.36zm44.2-1.743c-2.9.718-4.9 2.666-4.6 5.025.3 2.051 2.9 3.385 5.9 2.667 2.9-.718 4.9-2.667 4.6-4.718-.3-1.949-3-3.282-5.9-2.974zM244.8 0C106.1 0 0 107.998 0 250.253c0 113.741 69.8 211.073 169.5 245.33 12.8 2.358 17.3-5.744 17.3-12.411 0-6.359-.3-41.435-.3-62.973 0 0-70 15.384-84.7-30.564 0 0-11.4-29.846-27.8-37.538 0 0-22.9-16.102 1.6-15.794 0 0 24.9 2.05 38.6 26.46 21.9 39.59 58.6 28.205 72.9 21.436 2.3-16.41 8.8-27.794 16-34.563-55.9-6.36-112.3-14.667-112.3-113.332 0-28.205 7.6-42.358 23.6-60.41-2.6-6.666-11.1-34.153 2.6-69.64 20.9-6.666 69 27.693 69 27.693 20-5.744 41.5-8.718 62.8-8.718 21.3 0 42.8 2.974 62.8 8.718 0 0 48.1-34.461 69-27.692 13.7 35.589 5.2 62.973 2.6 69.64 16 18.153 25.8 32.307 25.8 60.409 0 98.973-58.9 106.87-114.8 113.332 9.2 8.102 17 23.486 17 47.589 0 34.563-.3 77.332-.3 85.742 0 6.666 4.6 14.769 17.3 12.41 100-34.05 167.8-131.383 167.8-245.124C496 107.998 383.5 0 244.8 0zM97.2 353.738c-1.3 1.026-1 3.385.7 5.333 1.6 1.641 3.9 2.36 5.2 1.026 1.3-1.026 1-3.385-.7-5.333-1.6-1.641-3.9-2.36-5.2-1.026zm-10.8-8.307c-.7 1.333.3 2.974 2.3 4 1.6 1.025 3.6.717 4.3-.718.7-1.334-.3-2.975-2.3-4-2-.616-3.6-.308-4.3.718zm32.4 36.512c-1.6 1.333-1 4.41 1.3 6.359 2.3 2.359 5.2 2.666 6.5 1.025 1.3-1.333.7-4.41-1.3-6.359-2.2-2.358-5.2-2.666-6.5-1.025zm-11.4-15.077c-1.6 1.026-1.6 3.692 0 6.051 1.6 2.36 4.3 3.385 5.6 2.36 1.6-1.334 1.6-4 0-6.36-1.4-2.359-4-3.384-5.6-2.05z"/></svg>