<svg width="500" height="500" xmlns="http://www.w3.org/2000/svg"><rect y="552.36" width="500" height="500" ry="0" fill="#00b2c6" transform="translate(0 -552.36)"/><rect x="75.66" y="133.92" width="362.75" height="246.07" ry="20" fill="#f4f4f4"/><path d="M95.66 113.92c-11.08 0-20 8.92-20 20v23.84h362.75v-23.84c0-11.08-8.92-20-20-20H95.66z" fill="#ff4a4a"/><g transform="matrix(1.2412 0 0 1 -21.47 -1.488)" fill="#b1b1b1"><rect x="88.998" y="191.6" width="89.803" height="10.056" ry="5.028"/><rect x="88.998" y="212.26" width="89.803" height="10.056" ry="5.028"/><rect x="88.998" y="232.92" width="89.803" height="10.056" ry="5.028"/></g><path fill="#d2d2d2" d="M224.5 171.1h200.57v89.402H224.5z"/><path fill="#b1b1b1" d="M228.04 174.28h193.5v83.038h-193.5z"/><rect x="224.5" y="284.15" width="189.53" height="5.056" ry="2.528" fill="#b1b1b1"/><rect x="224.5" y="299.64" width="189.18" height="5.056" ry="2.528" fill="#b1b1b1"/><rect x="224.5" y="315.13" width="146.04" height="5.056" ry="2.528" fill="#b1b1b1"/><rect x="224.5" y="330.62" width="138.97" height="5.056" ry="2.528" fill="#b1b1b1"/><rect x="224.5" y="346.11" width="147.81" height="5.056" ry="2.528" fill="#b1b1b1"/><rect x="224.5" y="361.6" width="158.77" height="5.056" ry="2.528" fill="#b1b1b1"/><rect x="224.5" y="268.66" width="189.53" height="5.056" ry="2.528" fill="#b1b1b1"/><rect x="88.998" y="275.85" width="111.47" height="90.808" ry="5.028" fill="#b1b1b1"/><circle cx="416.49" cy="135.84" r="10.509" fill="#f4f4f4"/><circle cx="384.96" cy="135.84" r="10.509" fill="#d2d2d2"/></svg>